<svg width="31" height="31" viewBox="0 0 31 31" fill="none" xmlns="http://www.w3.org/2000/svg">
<circle cx="15.5" cy="15.5" r="15.5" fill="#BA9502"/>
<path d="M12.748 10.88C12.384 10.6933 11.9967 10.5347 11.586 10.404C11.1753 10.264 10.7833 10.194 10.41 10.194C9.906 10.194 9.50467 10.306 9.206 10.53C8.91667 10.754 8.772 11.062 8.772 11.454C8.772 11.734 8.87467 11.9813 9.08 12.196C9.28533 12.4013 9.54667 12.5833 9.864 12.742C10.1813 12.8913 10.5173 13.036 10.872 13.176C11.18 13.288 11.4833 13.4233 11.782 13.582C12.09 13.7313 12.3653 13.918 12.608 14.142C12.8507 14.366 13.042 14.646 13.182 14.982C13.3313 15.3087 13.406 15.7147 13.406 16.2C13.406 16.732 13.2707 17.222 13 17.67C12.7293 18.1087 12.342 18.4587 11.838 18.72C11.334 18.9813 10.718 19.112 9.99 19.112C9.57 19.112 9.15467 19.0653 8.744 18.972C8.34267 18.8787 7.96 18.7527 7.596 18.594C7.232 18.426 6.896 18.2393 6.588 18.034L7.316 16.76C7.54 16.928 7.79667 17.082 8.086 17.222C8.37533 17.362 8.674 17.474 8.982 17.558C9.29 17.6327 9.57933 17.67 9.85 17.67C10.1393 17.67 10.424 17.6233 10.704 17.53C10.9933 17.4367 11.2313 17.2827 11.418 17.068C11.614 16.8533 11.712 16.5687 11.712 16.214C11.712 15.9247 11.628 15.6773 11.46 15.472C11.292 15.2667 11.0727 15.0893 10.802 14.94C10.5407 14.7813 10.2513 14.6413 9.934 14.52C9.61667 14.3987 9.29 14.2633 8.954 14.114C8.62733 13.9647 8.324 13.7827 8.044 13.568C7.764 13.344 7.53533 13.0733 7.358 12.756C7.18067 12.4387 7.092 12.0467 7.092 11.58C7.092 11.02 7.22267 10.5347 7.484 10.124C7.74533 9.71333 8.10467 9.38667 8.562 9.144C9.02867 8.90133 9.56533 8.77067 10.172 8.752C10.8907 8.752 11.502 8.84067 12.006 9.018C12.5193 9.186 12.972 9.39133 13.364 9.634L12.748 10.88ZM14.4844 19L18.9924 8.388H19.0904L23.5984 19H21.7224L18.5444 10.95L19.7204 10.152L16.0944 19H14.4844ZM17.3124 15.22H20.7984L21.3584 16.606H16.8224L17.3124 15.22Z" fill="#1E1E1E"/>
</svg>
